<svg xmlns="http://www.w3.org/2000/svg" xmlns:xlink="http://www.w3.org/1999/xlink" style="position:absolute; width:0; height:0; visibility:hidden;">

<!--
<symbol id="icon-" viewBox="0 0 500 500">
</symbol>
-->

<symbol id="icon-arrow" viewBox="0 0 500 500">
	<path display="inline" fill="#D93C4F" d="M231.757,233.733l-73.875,83.383c-12.373,12.977-11.885,33.527,1.092,45.9
		c6.287,5.993,14.348,8.969,22.399,8.969c8.568-0.001,17.123-3.372,23.5-10.062l121.007-132.813
		c11.517-12.079,12.001-30.921,1.117-43.574L205.991,44.851c-11.693-13.593-32.191-15.136-45.783-3.442
		c-13.594,11.692-15.136,32.19-3.442,45.784l76.538,88.983C233.303,176.176,258.595,202.77,231.757,233.733z"/>
	<path display="inline" fill="#FFFFFF" d="M247.995,236.192l-73.875,83.383c-12.374,12.977-11.885,33.527,1.092,45.9
		c6.286,5.993,14.348,8.97,22.399,8.969c8.567-0.001,17.122-3.372,23.5-10.062l121.007-132.813
		c11.518-12.079,11.999-30.922,1.116-43.575L222.229,47.311c-11.693-13.593-32.192-15.136-45.783-3.442
		c-13.594,11.692-15.136,32.19-3.443,45.783l76.538,88.984C249.541,178.636,274.833,205.229,247.995,236.192z"/>
</symbol>

<symbol id="icon-return" viewBox="0 0 500 500">
	<path fill="#3C4144" d="M428.194,278.906V148.751c0-11.817-5.048-18.857-9.281-22.68
	c-9.68-8.744-23.155-8.407-26.543-8.158h-66.297c-5.862,0-10.616,4.752-10.616,10.616s4.754,10.617,10.616,10.617h66.731
	c0.361,0,0.721-0.018,1.078-0.055c1.152-0.117,7.643-0.114,10.8,2.736c0.563,0.51,2.278,2.06,2.278,6.923v130.431
	c0,0.294,0.013,0.588,0.035,0.881c0.003,0.026-0.022,2.901-1.549,4.561c-1.63,1.77-5.023,2.142-7.586,2.142H122.377l92.688-52.964
	c5.092-2.91,6.861-9.395,3.951-14.485c-2.912-5.093-9.396-6.859-14.484-3.951L77.135,288.162c-3.337,1.908-5.385,5.472-5.349,9.315
	c0.036,3.843,2.145,7.368,5.519,9.215l127.396,69.765c1.618,0.886,3.366,1.307,5.089,1.307c3.754,0,7.391-1.995,9.323-5.519
	c2.814-5.142,0.929-11.595-4.216-14.411l-91.006-49.837h273.971c12.34,0,19.435-4.893,23.212-8.997
	C428.174,291.282,428.309,281.59,428.194,278.906z"/>
</symbol>

<symbol id="icon-ok" viewBox="0 0 500 500">
	<circle display="inline" fill="#94C94F" cx="250" cy="250" r="217.227"/>
	<line display="inline" fill="none" stroke="#FFFFFF" stroke-width="21.788" stroke-linecap="round" stroke-linejoin="round" stroke-miterlimit="10" x1="129.235" y1="262.677" x2="236.575" y2="363.414"/>
	<line display="inline" fill="none" stroke="#FFFFFF" stroke-width="21.788" stroke-linecap="round" stroke-linejoin="round" stroke-miterlimit="10" x1="370.766" y1="157.424" x2="238.264" y2="363.956"/>
</symbol>

<symbol id="icon-nok" viewBox="0 0 500 500">
	<circle display="inline" fill="#D93C4F" cx="250" cy="250" r="216.61"/>
	<line display="inline" fill="none" stroke="#FFFFFF" stroke-width="21.788" stroke-linecap="round" stroke-linejoin="round" stroke-miterlimit="10" x1="172.493" y1="167.126" x2="327.507" y2="332.796"/>
	<line display="inline" fill="none" stroke="#FFFFFF" stroke-width="21.7882" stroke-linecap="round" stroke-linejoin="round" stroke-miterlimit="10" x1="327.507" y1="167.126" x2="172.493" y2="332.796"/>
</symbol>

<symbol id="icon-linkedin" viewBox="0 0 500 500">
	<polygon points="163.66,379.993 98.36,379.993 98.36,171.035 163.66,171.035 163.66,379.993 	"/>
	<path d="M131.735,143.464c-20.315,0-37.729-17.414-37.729-37.729c0-20.315,17.413-37.728,37.729-37.728
		s37.729,17.413,37.729,37.728C169.464,126.051,152.051,143.464,131.735,143.464z"/>
	<path d="M405.993,379.993h-63.85V278.416c0-24.67,0-55.142-33.375-55.142c-33.377,0-39.181,26.119-39.181,53.691
		v103.028h-63.847V171.035h60.944v29.022c8.706-15.963,29.023-33.375,60.948-33.375c65.299,0,76.906,43.533,76.906,98.675v114.637
		H405.993z"/>
</symbol>

<symbol id="icon-facebook" viewBox="0 0 500 500">
	<path d="M270.449,420.187V246.678h58.24l8.719-67.618h-66.959v-43.173c0-19.576,5.438-32.919,33.513-32.919
		l35.807-0.017V42.474c-6.195-0.821-27.45-2.662-52.177-2.662c-51.625,0-86.97,31.511-86.97,89.381v49.868h-58.391v67.62h58.389
		v173.507L270.449,420.187L270.449,420.187z"/>
</symbol>

<symbol id="icon-twitter" viewBox="0 0 500 500">
	<path id="twitter" d="M167.614,440.464c167.593,0,259.244-138.845,259.244-259.246c0-3.944-0.08-7.871-0.256-11.778
		c17.79-12.861,33.253-28.912,45.45-47.182c-16.326,7.256-33.895,12.142-52.325,14.345c18.812-11.28,33.255-29.124,40.066-50.397
		c-17.604,10.437-37.101,18.021-57.856,22.117c-16.628-17.71-40.298-28.786-66.51-28.786c-50.316,0-91.12,40.804-91.12,91.102
		c0,7.15,0.799,14.105,2.362,20.775c-75.729-3.81-142.877-40.067-187.818-95.198c-7.824,13.465-12.335,29.107-12.335,45.796
		c0,31.611,16.084,59.518,40.546,75.843c-14.949-0.461-28.99-4.565-41.265-11.395c-0.015,0.383-0.015,0.755-0.015,1.163
		c0,44.127,31.409,80.969,73.1,89.319c-7.657,2.087-15.712,3.204-24.026,3.204c-5.862,0-11.573-0.576-17.125-1.642
		c11.6,36.203,45.236,62.548,85.116,63.284c-31.186,24.443-70.47,39-113.165,39c-7.347,0-14.603-0.416-21.734-1.261
		c40.324,25.847,88.206,40.93,139.668,40.93"/>
</symbol>

</svg>