<?xml version="1.0" encoding="utf-8"?>
<!-- Generator: Adobe Illustrator 16.0.0, SVG Export Plug-In . SVG Version: 6.00 Build 0)  -->
<!DOCTYPE svg PUBLIC "-//W3C//DTD SVG 1.1//EN" "http://www.w3.org/Graphics/SVG/1.1/DTD/svg11.dtd">
<svg version="1.1" id="Layer_1" xmlns="http://www.w3.org/2000/svg" xmlns:xlink="http://www.w3.org/1999/xlink" x="0px" y="0px"
	 width="500px" height="500px" viewBox="0 0 500 500" enable-background="new 0 0 500 500" xml:space="preserve">
<path id="return" fill="#3C4144" d="M428.194,278.906V148.751c0-11.817-5.048-18.857-9.281-22.68
	c-9.68-8.744-23.155-8.407-26.543-8.158h-66.297c-5.862,0-10.616,4.752-10.616,10.616s4.754,10.617,10.616,10.617h66.731
	c0.361,0,0.721-0.018,1.078-0.055c1.152-0.117,7.643-0.114,10.8,2.736c0.563,0.51,2.278,2.06,2.278,6.923v130.431
	c0,0.294,0.013,0.588,0.035,0.881c0.003,0.026-0.022,2.901-1.549,4.561c-1.63,1.77-5.023,2.142-7.586,2.142H122.377l92.688-52.964
	c5.092-2.91,6.861-9.395,3.951-14.485c-2.912-5.093-9.396-6.859-14.484-3.951L77.135,288.162c-3.337,1.908-5.385,5.472-5.349,9.315
	c0.036,3.843,2.145,7.368,5.519,9.215l127.396,69.765c1.618,0.886,3.366,1.307,5.089,1.307c3.754,0,7.391-1.995,9.323-5.519
	c2.814-5.142,0.929-11.595-4.216-14.411l-91.006-49.837h273.971c12.34,0,19.435-4.893,23.212-8.997
	C428.174,291.282,428.309,281.59,428.194,278.906z"/>
</svg>
