<?xml version="1.0" standalone="no"?>
<!DOCTYPE svg PUBLIC "-//W3C//DTD SVG 20010904//EN"
 "http://www.w3.org/TR/2001/REC-SVG-20010904/DTD/svg10.dtd">
<svg version="1.0" xmlns="http://www.w3.org/2000/svg"
 width="1312.000000pt" height="1312.000000pt" viewBox="0 0 1312.000000 1312.000000"
 preserveAspectRatio="xMidYMid meet">
<metadata>
Created by potrace 1.11, written by Peter Selinger 2001-2013
</metadata>
<g transform="translate(0.000000,1312.000000) scale(0.100000,-0.100000)"
fill="#000000" stroke="none">
<path d="M0 8180 l0 -1130 2655 0 2655 0 0 1130 0 1130 -2655 0 -2655 0 0
-1130z"/>
<path d="M8548 8240 c-3 -13 -2 -3407 1 -3420 0 -3 1028 -5 2284 -5 l2282 0 3
1720 2 1720 -2284 0 c-2027 0 -2285 -2 -2288 -15z"/>
<path d="M2714 6818 c-3 -5 -7 -2600 -4 -2955 l0 -63 2795 0 c2229 0 2795 3
2796 13 1 16 1 2989 0 3002 -1 12 -5580 15 -5587 3z"/>
</g>
</svg>
